<svg width="232" height="112" viewBox="0 0 232 112" fill="none" xmlns="http://www.w3.org/2000/svg">
<path d="M5.12 95.8457V51.0457H32.448V56.5497H11.2V69.6697H28.096V75.1737H11.2V90.3417H33.024V95.8457H5.12ZM47.4055 96.4857C45.3788 96.4857 43.7682 96.123 42.5735 95.3977C41.4002 94.651 40.5575 93.7017 40.0455 92.5497C39.5335 91.3977 39.2775 90.1924 39.2775 88.9337V47.8457H45.0375V85.6057C45.0375 87.3977 45.1548 88.7417 45.3895 89.6377C45.6242 90.5337 46.0935 91.131 46.7975 91.4297C47.5228 91.7284 48.6215 91.8777 50.0935 91.8777L49.2615 96.4857H47.4055ZM66.57 96.4857C63.9033 96.4857 61.4927 95.7604 59.338 94.3097C57.1833 92.859 55.466 90.907 54.186 88.4537C52.9273 86.0004 52.298 83.259 52.298 80.2297C52.298 77.3497 52.874 74.6617 54.026 72.1657C55.1993 69.6697 56.8527 67.6644 58.986 66.1497C61.1193 64.6137 63.6473 63.8457 66.57 63.8457C68.6607 63.8457 70.6767 64.3044 72.618 65.2217C74.5807 66.1177 76.17 67.6217 77.386 69.7337L76.17 70.5657V47.8457H81.93V95.8457H76.81L75.722 89.1897L77.194 90.2137C76.2767 92.283 74.8367 93.851 72.874 94.9177C70.9113 95.963 68.81 96.4857 66.57 96.4857ZM67.594 91.3657C69.0447 91.3657 70.474 90.9924 71.882 90.2457C73.3113 89.499 74.4847 88.315 75.402 86.6937C76.3407 85.051 76.81 82.8964 76.81 80.2297C76.81 77.755 76.3407 75.6857 75.402 74.0217C74.4847 72.3364 73.3113 71.0777 71.882 70.2457C70.474 69.3924 69.0447 68.9657 67.594 68.9657C65.6313 68.9657 63.946 69.4564 62.538 70.4377C61.13 71.419 60.0527 72.763 59.306 74.4697C58.5593 76.155 58.186 78.075 58.186 80.2297C58.186 82.2564 58.5593 84.1124 59.306 85.7977C60.0527 87.483 61.13 88.8377 62.538 89.8617C63.946 90.8644 65.6313 91.3657 67.594 91.3657ZM104.694 96.4857C101.003 96.4857 97.8993 95.7284 95.382 94.2137C92.8647 92.699 90.9553 90.6937 89.654 88.1977C88.374 85.6804 87.734 82.9177 87.734 79.9097C87.734 76.987 88.3313 74.3097 89.526 71.8777C90.742 69.4457 92.4913 67.5044 94.774 66.0537C97.078 64.5817 99.8513 63.8457 103.094 63.8457C105.697 63.8457 108.011 64.3684 110.038 65.4137C112.086 66.4377 113.686 67.9417 114.838 69.9257C116.011 71.8884 116.598 74.2777 116.598 77.0937C116.598 77.5417 116.577 78.0324 116.534 78.5657C116.513 79.0777 116.449 79.611 116.342 80.1657H93.622C93.8993 83.067 94.5927 85.3284 95.702 86.9497C96.8113 88.571 98.2087 89.7124 99.894 90.3737C101.579 91.035 103.414 91.3657 105.398 91.3657C106.849 91.3657 108.363 91.2164 109.942 90.9177C111.521 90.619 113.014 90.1497 114.422 89.5097L115.19 94.0537C113.974 94.587 112.491 95.131 110.742 95.6857C108.993 96.219 106.977 96.4857 104.694 96.4857ZM94.134 76.1977H110.646C110.646 74.7257 110.369 73.4457 109.814 72.3577C109.259 71.2697 108.417 70.4377 107.286 69.8617C106.155 69.2644 104.715 68.9657 102.966 68.9657C100.406 68.9657 98.4327 69.6057 97.046 70.8857C95.6807 72.1444 94.71 73.915 94.134 76.1977ZM122.404 95.8457V64.4857H127.14L127.844 69.6697C129.444 67.6857 130.969 66.2244 132.42 65.2857C133.892 64.3257 135.46 63.8457 137.124 63.8457C137.657 63.8457 138.148 63.9097 138.596 64.0377L138.02 70.3737C137.743 70.3097 137.444 70.267 137.124 70.2457C136.825 70.203 136.484 70.1817 136.1 70.1817C134.436 70.1817 132.9 70.555 131.492 71.3017C130.105 72.027 129.124 72.827 128.548 73.7017V95.8457H122.404ZM156.882 96.4857C153.191 96.4857 150.087 95.7284 147.57 94.2137C145.052 92.699 143.143 90.6937 141.842 88.1977C140.562 85.6804 139.922 82.9177 139.922 79.9097C139.922 76.987 140.519 74.3097 141.714 71.8777C142.93 69.4457 144.679 67.5044 146.962 66.0537C149.266 64.5817 152.039 63.8457 155.282 63.8457C157.884 63.8457 160.199 64.3684 162.226 65.4137C164.274 66.4377 165.874 67.9417 167.026 69.9257C168.199 71.8884 168.786 74.2777 168.786 77.0937C168.786 77.5417 168.764 78.0324 168.722 78.5657C168.7 79.0777 168.636 79.611 168.53 80.1657H145.81C146.087 83.067 146.78 85.3284 147.89 86.9497C148.999 88.571 150.396 89.7124 152.082 90.3737C153.767 91.035 155.602 91.3657 157.586 91.3657C159.036 91.3657 160.551 91.2164 162.13 90.9177C163.708 90.619 165.202 90.1497 166.61 89.5097L167.378 94.0537C166.162 94.587 164.679 95.131 162.93 95.6857C161.18 96.219 159.164 96.4857 156.882 96.4857ZM146.322 76.1977H162.834C162.834 74.7257 162.556 73.4457 162.002 72.3577C161.447 71.2697 160.604 70.4377 159.474 69.8617C158.343 69.2644 156.903 68.9657 155.154 68.9657C152.594 68.9657 150.62 69.6057 149.234 70.8857C147.868 72.1444 146.898 73.915 146.322 76.1977ZM182.656 96.4857C180.629 96.4857 179.018 96.123 177.824 95.3977C176.65 94.651 175.808 93.7017 175.296 92.5497C174.784 91.3977 174.528 90.1924 174.528 88.9337V47.8457H180.288V85.6057C180.288 87.3977 180.405 88.7417 180.64 89.6377C180.874 90.5337 181.344 91.131 182.048 91.4297C182.773 91.7284 183.872 91.8777 185.344 91.8777L184.512 96.4857H182.656ZM197.781 96.4857C195.754 96.4857 194.143 96.123 192.949 95.3977C191.775 94.651 190.933 93.7017 190.421 92.5497C189.909 91.3977 189.653 90.1924 189.653 88.9337V47.8457H195.413V85.6057C195.413 87.3977 195.53 88.7417 195.765 89.6377C195.999 90.5337 196.469 91.131 197.173 91.4297C197.898 91.7284 198.997 91.8777 200.469 91.8777L199.637 96.4857H197.781ZM212.138 96.4857C210.196 96.4857 208.5 96.091 207.05 95.3017C205.599 94.5124 204.468 93.435 203.658 92.0697C202.868 90.7044 202.474 89.147 202.474 87.3977C202.474 85.627 202.858 84.1124 203.626 82.8537C204.415 81.5737 205.46 80.5177 206.762 79.6857C208.084 78.8324 209.556 78.1604 211.178 77.6697C212.799 77.1577 214.474 76.795 216.202 76.5817C217.951 76.347 219.626 76.219 221.226 76.1977C221.226 73.211 220.639 71.259 219.466 70.3417C218.292 69.4244 216.596 68.9657 214.378 68.9657C213.204 68.9657 211.946 69.147 210.602 69.5097C209.279 69.8724 207.786 70.6297 206.122 71.7817L205.29 67.1097C206.548 66.1497 208.116 65.371 209.994 64.7737C211.871 64.155 213.844 63.8457 215.914 63.8457C218.559 63.8457 220.692 64.315 222.314 65.2537C223.935 66.171 225.119 67.7284 225.866 69.9257C226.612 72.123 226.986 75.1097 226.986 78.8857V85.2857C226.986 86.779 227.05 88.0164 227.178 88.9977C227.327 89.9577 227.647 90.683 228.138 91.1737C228.65 91.643 229.46 91.8777 230.57 91.8777H231.146L230.25 96.4857H229.802C227.946 96.4857 226.506 96.3044 225.482 95.9417C224.479 95.579 223.711 95.0564 223.178 94.3737C222.644 93.691 222.164 92.859 221.738 91.8777C220.564 93.243 219.178 94.3524 217.578 95.2057C215.978 96.059 214.164 96.4857 212.138 96.4857ZM213.226 91.8777C214.762 91.8777 216.244 91.4937 217.674 90.7257C219.124 89.9577 220.308 88.9337 221.226 87.6537V80.1657C218.175 80.2724 215.7 80.571 213.802 81.0617C211.924 81.5524 210.548 82.2884 209.674 83.2697C208.799 84.251 208.362 85.5204 208.362 87.0777C208.362 88.763 208.81 89.9897 209.706 90.7577C210.623 91.5044 211.796 91.8777 213.226 91.8777Z" fill="black"/>
<line x1="192.5" y1="48.8457" x2="192.5" y2="35.8457" stroke="black" stroke-width="5.8"/>
<path d="M191.861 0.845703C194.218 15.9812 202.348 14.7378 209 16.3242C192.739 18.4252 194.911 23.6133 191.908 31.8457C190.614 22.327 187.612 17.2675 175 16.3644C189.921 15.2787 190.43 7.19141 191.861 0.845703Z" fill="#FFBC57"/>
<path d="M204.032 8.95134C202.429 10.472 200.206 10.7306 199.065 9.52876C197.924 8.32695 198.299 6.11991 199.901 4.5992C201.504 3.07848 203.727 2.81996 204.868 4.02177C206.008 5.22358 205.634 7.43062 204.032 8.95134Z" fill="#FFBC57"/>
</svg>
