<svg fill="none" height="40" viewBox="0 0 40 40" width="40" xmlns="http://www.w3.org/2000/svg"><g fill="#000"><path d="m37.5 9.99989c0-1.32609-.5268-2.59786-1.4645-3.53554-.9376-.93768-2.2094-1.46446-3.5355-1.46446h-1.25v-1.21485c0-.67265-.5172-1.25-1.1898-1.28359-.1691-.00814-.338.01811-.4965.07717-.1586.05907-.3035.14971-.426.26644s-.22.25711-.2867.41264c-.0666.15553-.101.32298-.101.49219v1.25h-17.5v-1.21485c0-.67265-.5172-1.25-1.1898-1.28359-.16906-.00814-.33796.01811-.49653.07717-.15856.05907-.30348.14971-.42598.26644s-.22002.25711-.28666.41264c-.06665.15553-.10101.32298-.10103.49219v1.25h-1.25c-1.32608 0-2.59785.52678-3.53553 1.46446-.93769.93768-1.46447 2.20945-1.46447 3.53554v.93751c0 .0829.03292.1624.09153.221.0586.0586.13809.0915.22097.0915h34.375c.0829 0 .1624-.0329.221-.0915s.0915-.1381.0915-.221z"/><path d="m2.5 32.5c0 1.3261.52678 2.5978 1.46447 3.5355.93768.9377 2.20945 1.4645 3.53553 1.4645h25c1.3261 0 2.5979-.5268 3.5355-1.4645.9377-.9377 1.4645-2.2094 1.4645-3.5355v-18.5156c0-.0622-.0247-.1218-.0686-.1658-.044-.0439-.1036-.0686-.1658-.0686h-34.53122c-.06217 0-.12178.0247-.16573.0686-.04396.044-.06865.1036-.06865.1658zm26.875-16.25c.3708 0 .7334.11 1.0417.316s.5487.4989.6906.8415.179.7196.1067 1.0833c-.0724.3637-.251.6978-.5132.96s-.5963.4408-.96.5132c-.3637.0723-.7407.0352-1.0833-.1067s-.6355-.3823-.8415-.6906-.316-.6709-.316-1.0417c0-.4973.1975-.9742.5492-1.3258.3516-.3517.8285-.5492 1.3258-.5492zm0 6.25c.3708 0 .7334.11 1.0417.316s.5487.4989.6906.8415.179.7196.1067 1.0833c-.0724.3637-.251.6978-.5132.96s-.5963.4408-.96.5132c-.3637.0723-.7407.0352-1.0833-.1067s-.6355-.3823-.8415-.6906-.316-.6709-.316-1.0417c0-.4973.1975-.9742.5492-1.3258.3516-.3517.8285-.5492 1.3258-.5492zm-6.25-6.25c.3708 0 .7334.11 1.0417.316s.5487.4989.6906.8415.179.7196.1067 1.0833c-.0724.3637-.251.6978-.5132.96s-.5963.4408-.96.5132c-.3637.0723-.7407.0352-1.0833-.1067s-.6355-.3823-.8415-.6906-.316-.6709-.316-1.0417c0-.4973.1975-.9742.5492-1.3258.3516-.3517.8285-.5492 1.3258-.5492zm0 6.25c.3708 0 .7334.11 1.0417.316s.5487.4989.6906.8415.179.7196.1067 1.0833c-.0724.3637-.251.6978-.5132.96s-.5963.4408-.96.5132c-.3637.0723-.7407.0352-1.0833-.1067s-.6355-.3823-.8415-.6906-.316-.6709-.316-1.0417c0-.4973.1975-.9742.5492-1.3258.3516-.3517.8285-.5492 1.3258-.5492zm0 6.25c.3708 0 .7334.11 1.0417.316s.5487.4989.6906.8415.179.7196.1067 1.0833c-.0724.3637-.251.6978-.5132.96s-.5963.4408-.96.5132c-.3637.0723-.7407.0352-1.0833-.1067s-.6355-.3823-.8415-.6906c-.206-.3084-.316-.6709-.316-1.0417 0-.4973.1975-.9742.5492-1.3258.3516-.3517.8285-.5492 1.3258-.5492zm-6.25-6.25c.3708 0 .7334.11 1.0417.316s.5487.4989.6906.8415.179.7196.1067 1.0833c-.0724.3637-.251.6978-.5132.96s-.5963.4408-.96.5132c-.3637.0723-.7407.0352-1.0833-.1067s-.6355-.3823-.8415-.6906-.316-.6709-.316-1.0417c0-.4973.1975-.9742.5492-1.3258.3516-.3517.8285-.5492 1.3258-.5492zm0 6.25c.3708 0 .7334.11 1.0417.316s.5487.4989.6906.8415.179.7196.1067 1.0833c-.0724.3637-.251.6978-.5132.96s-.5963.4408-.96.5132c-.3637.0723-.7407.0352-1.0833-.1067s-.6355-.3823-.8415-.6906c-.206-.3084-.316-.6709-.316-1.0417 0-.4973.1975-.9742.5492-1.3258.3516-.3517.8285-.5492 1.3258-.5492zm-6.25-6.25c.3708 0 .7334.11 1.0417.316s.5487.4989.6906.8415.179.7196.1067 1.0833c-.0724.3637-.251.6978-.5132.96s-.5963.4408-.96.5132c-.3637.0723-.7407.0352-1.08333-.1067-.34261-.1419-.63545-.3823-.84148-.6906-.20602-.3083-.31599-.6709-.31599-1.0417 0-.4973.19754-.9742.54917-1.3258.35164-.3517.82853-.5492 1.32583-.5492zm0 6.25c.3708 0 .7334.11 1.0417.316s.5487.4989.6906.8415.179.7196.1067 1.0833c-.0724.3637-.251.6978-.5132.96s-.5963.4408-.96.5132c-.3637.0723-.7407.0352-1.08333-.1067-.34261-.1419-.63545-.3823-.84148-.6906-.20602-.3084-.31599-.6709-.31599-1.0417 0-.4973.19754-.9742.54917-1.3258.35164-.3517.82853-.5492 1.32583-.5492z"/></g></svg>