<svg width="40" height="40" viewBox="0 0 40 40" fill="none" xmlns="http://www.w3.org/2000/svg">
<path d="M26.2497 20C24.6435 20 23.0904 19.2828 21.8747 17.9813C20.6927 16.7117 19.9708 15.0188 19.8435 13.2156C19.7076 11.2922 20.2943 9.52344 21.4951 8.23438C22.6958 6.94531 24.3747 6.25 26.2497 6.25C28.1115 6.25 29.7951 6.95781 30.9919 8.24375C32.2005 9.54219 32.7888 11.3078 32.6529 13.2148C32.5224 15.0203 31.8013 16.7125 30.6216 17.9805C29.4091 19.2828 27.8568 20 26.2497 20Z" fill="black"/>
<path d="M36.5494 33.75H15.9517C15.6206 33.7518 15.2934 33.6775 14.9955 33.533C14.6975 33.3885 14.4366 33.1776 14.233 32.9164C14.017 32.6333 13.8678 32.305 13.7966 31.9561C13.7255 31.6072 13.7342 31.2467 13.8221 30.9016C14.4799 28.2602 16.1096 26.0695 18.5346 24.5672C20.6869 23.2344 23.4267 22.5 26.2502 22.5C29.1291 22.5 31.7971 23.2031 33.9619 24.5352C36.3924 26.0297 38.0244 28.2328 38.6791 30.9062C38.7659 31.2516 38.7736 31.6121 38.7017 31.9608C38.6297 32.3096 38.4799 32.6376 38.2635 32.9203C38.06 33.1803 37.7998 33.3902 37.5027 33.534C37.2056 33.6778 36.8795 33.7517 36.5494 33.75Z" fill="black"/>
<path d="M11.4839 20.3125C8.73468 20.3125 6.31749 17.7563 6.09327 14.6148C5.98233 13.0055 6.48389 11.5172 7.49952 10.4258C8.50421 9.34531 9.92139 8.75 11.4839 8.75C13.0464 8.75 14.4526 9.34844 15.4628 10.4352C16.4862 11.5352 16.9862 13.0203 16.8691 14.6164C16.6448 17.757 14.2284 20.3125 11.4839 20.3125Z" fill="black"/>
<path d="M16.614 22.7695C15.2398 22.0977 13.4562 21.7617 11.4851 21.7617C9.1835 21.7617 6.94835 22.3617 5.19054 23.4508C3.19757 24.6875 1.85694 26.4883 1.31554 28.6625C1.23631 28.9752 1.22881 29.3018 1.29362 29.6179C1.35842 29.9339 1.49384 30.2312 1.68975 30.4875C1.87565 30.7261 2.11381 30.919 2.3859 31.0512C2.658 31.1834 2.95678 31.2514 3.25929 31.25H11.9312C12.0775 31.25 12.2192 31.1986 12.3316 31.1048C12.444 31.011 12.5198 30.8807 12.546 30.7367C12.5546 30.6875 12.5655 30.6383 12.578 30.5898C13.2405 27.9289 14.7929 25.6805 17.0866 24.0414C17.171 23.9806 17.2389 23.8997 17.284 23.806C17.3292 23.7124 17.3504 23.6089 17.3455 23.505C17.3406 23.4011 17.3099 23.3001 17.2561 23.2111C17.2023 23.1221 17.1271 23.0479 17.0374 22.9953C16.9148 22.9234 16.7741 22.8477 16.614 22.7695Z" fill="black"/>
</svg>