<svg width="709" height="300" viewBox="8 0 701 300" fill="none" xmlns="http://www.w3.org/2000/svg">
<path d="M578.669 109.786H596.861V150.564H578.669V109.786Z" fill="black"/>
<path d="M649.365 300C643.276 300 637.956 298.762 633.406 296.286C628.855 293.81 625.309 290.431 622.766 286.148C620.29 281.865 619.052 276.98 619.052 271.493C619.052 265.939 620.256 261.188 622.665 257.24C625.141 253.225 628.42 249.912 632.502 247.302C636.651 244.626 641.268 242.518 646.354 240.979C651.44 239.373 656.693 238.235 662.113 237.566C667.6 236.83 672.853 236.428 677.872 236.361C677.872 226.993 676.032 220.87 672.351 217.992C668.671 215.115 663.351 213.676 656.392 213.676C652.711 213.676 648.763 214.245 644.547 215.383C640.398 216.52 635.714 218.896 630.495 222.509L627.885 207.854C631.833 204.843 636.751 202.401 642.64 200.527C648.529 198.586 654.719 197.616 661.21 197.616C669.507 197.616 676.199 199.088 681.285 202.033C686.371 204.91 690.084 209.795 692.427 216.688C694.769 223.58 695.94 232.949 695.94 244.793V264.868C695.94 269.552 696.14 273.434 696.542 276.512C697.01 279.523 698.014 281.798 699.553 283.337C701.159 284.81 703.702 285.546 707.182 285.546H708.989L706.178 300H704.773C698.951 300 694.434 299.431 691.222 298.294C688.077 297.156 685.668 295.516 683.995 293.375C682.322 291.234 680.816 288.624 679.478 285.546C675.798 289.828 671.448 293.308 666.429 295.985C661.41 298.662 655.722 300 649.365 300ZM652.778 285.546C657.596 285.546 662.247 284.341 666.73 281.932C671.281 279.523 674.995 276.311 677.872 272.296V248.808C668.303 249.143 660.54 250.079 654.585 251.619C648.696 253.158 644.38 255.466 641.636 258.545C638.893 261.623 637.521 265.604 637.521 270.489C637.521 275.776 638.926 279.624 641.737 282.033C644.614 284.375 648.295 285.546 652.778 285.546Z" fill="black"/>
<path d="M604.329 300C597.971 300 592.919 298.862 589.172 296.587C585.491 294.245 582.848 291.267 581.242 287.653C579.636 284.04 578.833 280.259 578.833 276.311V147.428H596.901V265.872C596.901 271.493 597.269 275.709 598.005 278.519C598.741 281.33 600.213 283.203 602.421 284.14C604.697 285.077 608.143 285.545 612.76 285.545L610.15 300H604.329Z" fill="black"/>
<path d="M556.883 300C550.526 300 545.474 298.862 541.726 296.587C538.046 294.245 535.403 291.267 533.797 287.653C532.191 284.04 531.388 280.259 531.388 276.311V147.428H549.455V265.872C549.455 271.493 549.823 275.709 550.559 278.519C551.296 281.33 552.768 283.203 554.976 284.14C557.251 285.077 560.697 285.545 565.315 285.545L562.705 300H556.883Z" fill="black"/>
<path d="M476.033 300C464.457 300 454.72 297.624 446.824 292.873C438.928 288.122 432.939 281.832 428.857 274.002C424.842 266.106 422.834 257.44 422.834 248.005C422.834 238.837 424.708 230.439 428.455 222.811C432.269 215.182 437.757 209.092 444.917 204.542C452.144 199.925 460.843 197.616 471.014 197.616C479.178 197.616 486.439 199.256 492.796 202.535C499.22 205.747 504.239 210.464 507.852 216.688C511.533 222.844 513.373 230.339 513.373 239.172C513.373 240.577 513.306 242.116 513.172 243.789C513.105 245.395 512.905 247.068 512.57 248.808H441.303C442.173 257.909 444.348 265.002 447.828 270.088C451.307 275.174 455.69 278.754 460.977 280.828C466.263 282.903 472.018 283.94 478.241 283.94C482.792 283.94 487.543 283.471 492.495 282.534C497.447 281.598 502.131 280.125 506.548 278.118L508.957 292.371C505.142 294.044 500.492 295.751 495.004 297.491C489.517 299.163 483.193 300 476.033 300ZM442.909 236.361H494.703C494.703 231.744 493.833 227.729 492.093 224.316C490.354 220.903 487.71 218.294 484.164 216.487C480.617 214.613 476.1 213.676 470.613 213.676C462.583 213.676 456.393 215.684 452.043 219.699C447.761 223.647 444.716 229.201 442.909 236.361Z" fill="black"/>
<path d="M367.889 297.992V199.624H382.744L384.953 215.885C389.971 209.661 394.756 205.077 399.306 202.133C403.924 199.122 408.842 197.616 414.062 197.616C415.735 197.616 417.274 197.817 418.679 198.218L416.872 218.093C416.002 217.892 415.065 217.758 414.062 217.691C413.125 217.558 412.054 217.491 410.85 217.491C405.63 217.491 400.812 218.662 396.395 221.004C392.046 223.279 388.968 225.788 387.161 228.532V297.992H367.889Z" fill="black"/>
<path d="M312.338 300C300.761 300 291.025 297.624 283.129 292.873C275.232 288.122 269.243 281.832 265.161 274.002C261.146 266.106 259.139 257.44 259.139 248.005C259.139 238.837 261.012 230.439 264.76 222.811C268.574 215.182 274.061 209.092 281.221 204.542C288.448 199.925 297.148 197.616 307.319 197.616C315.483 197.616 322.744 199.256 329.101 202.535C335.525 205.747 340.544 210.464 344.157 216.688C347.838 222.844 349.678 230.339 349.678 239.172C349.678 240.577 349.611 242.116 349.477 243.789C349.41 245.395 349.209 247.068 348.875 248.808H277.608C278.478 257.909 280.653 265.002 284.132 270.088C287.612 275.174 291.995 278.754 297.282 280.828C302.568 282.903 308.323 283.94 314.546 283.94C319.097 283.94 323.848 283.471 328.8 282.534C333.751 281.598 338.436 280.125 342.852 278.118L345.261 292.371C341.447 294.044 336.796 295.751 331.309 297.491C325.822 299.163 319.498 300 312.338 300ZM279.214 236.361H331.008C331.008 231.744 330.138 227.729 328.398 224.316C326.658 220.903 324.015 218.294 320.468 216.487C316.922 214.613 312.405 213.676 306.918 213.676C298.888 213.676 292.698 215.684 288.348 219.699C284.065 223.647 281.021 229.201 279.214 236.361Z" fill="black"/>
<path d="M192.752 300C184.387 300 176.826 297.724 170.067 293.174C163.308 288.624 157.922 282.501 153.907 274.805C149.958 267.11 147.984 258.511 147.984 249.008C147.984 239.975 149.791 231.543 153.405 223.714C157.085 215.884 162.271 209.594 168.963 204.843C175.655 200.025 183.584 197.616 192.752 197.616C199.31 197.616 205.634 199.055 211.723 201.932C217.879 204.743 222.865 209.46 226.679 216.085L222.865 218.695V147.428H240.932V297.992H224.872L221.46 277.114L226.077 280.326C223.199 286.817 218.682 291.735 212.526 295.081C206.37 298.36 199.778 300 192.752 300ZM195.964 283.939C200.514 283.939 204.998 282.768 209.414 280.426C213.898 278.084 217.578 274.37 220.456 269.284C223.4 264.132 224.872 257.373 224.872 249.008C224.872 241.246 223.4 234.755 220.456 229.535C217.578 224.249 213.898 220.301 209.414 217.691C204.998 215.014 200.514 213.676 195.964 213.676C189.808 213.676 184.521 215.215 180.105 218.293C175.688 221.372 172.309 225.587 169.967 230.941C167.625 236.227 166.454 242.25 166.454 249.008C166.454 255.366 167.625 261.187 169.967 266.474C172.309 271.76 175.688 276.01 180.105 279.222C184.521 282.367 189.808 283.939 195.964 283.939Z" fill="black"/>
<path d="M132.644 300C126.287 300 121.235 298.862 117.487 296.587C113.807 294.245 111.163 291.267 109.557 287.653C107.951 284.04 107.148 280.259 107.148 276.311V147.428H125.216V265.872C125.216 271.493 125.584 275.709 126.32 278.519C127.056 281.33 128.529 283.203 130.737 284.14C133.012 285.077 136.458 285.545 141.076 285.545L138.466 300H132.644Z" fill="black"/>
<path d="M0 297.992V157.465H85.721V174.73H19.0714V215.884H72.0699V233.149H19.0714V280.727H87.5278V297.992H0Z" fill="black"/>
<path d="M585.754 0C593.145 47.4764 618.648 43.5761 639.514 48.5524C588.508 55.1427 595.319 71.4165 585.9 97.2396C581.842 67.3817 572.424 51.5113 532.864 48.6784C579.669 45.2728 581.263 19.905 585.754 0Z" fill="#FFBC57"/>
<path d="M623.937 25.4254C618.911 30.1955 611.936 31.0064 608.359 27.2366C604.781 23.4668 605.956 16.5439 610.982 11.7738C616.008 7.00366 622.983 6.19274 626.561 9.96253C630.138 13.7323 628.964 20.6553 623.937 25.4254Z" fill="#FFBC57"/>
</svg>
