<svg width="40" height="40" viewBox="0 0 512 512" fill="none" xmlns="http://www.w3.org/2000/svg">
<g clip-path="url(#clip0_1492_1412)">
<path d="M207.999 512C202.943 512.026 197.999 510.508 193.828 507.648C189.657 504.789 186.459 500.726 184.659 496L144.819 392.4C144.012 390.312 142.778 388.416 141.195 386.834C139.613 385.251 137.717 384.017 135.629 383.21L31.9991 343.34C27.2785 341.528 23.2183 338.328 20.3543 334.161C17.4902 329.994 15.957 325.056 15.957 320C15.957 314.944 17.4902 310.006 20.3543 305.839C23.2183 301.672 27.2785 298.472 31.9991 296.66L135.599 256.82C137.687 256.013 139.583 254.779 141.165 253.196C142.748 251.614 143.982 249.718 144.789 247.63L184.659 144C186.471 139.279 189.671 135.219 193.838 132.355C198.005 129.491 202.943 127.958 207.999 127.958C213.055 127.958 217.993 129.491 222.16 132.355C226.327 135.219 229.527 139.279 231.339 144L271.179 247.6C271.986 249.688 273.22 251.584 274.803 253.166C276.386 254.749 278.281 255.983 280.369 256.79L383.369 296.42C388.282 298.241 392.514 301.532 395.49 305.844C398.465 310.156 400.04 315.281 399.999 320.52C399.923 325.488 398.357 330.319 395.504 334.388C392.652 338.456 388.644 341.575 383.999 343.34L280.399 383.18C278.311 383.987 276.416 385.221 274.833 386.804C273.25 388.386 272.016 390.282 271.209 392.37L231.339 496C229.54 500.726 226.341 504.789 222.17 507.648C218 510.508 213.056 512.026 207.999 512Z" fill="black"/>
<path d="M88.0001 176C85.0356 176 82.1408 175.102 79.6969 173.424C77.2531 171.746 75.375 169.367 74.3101 166.6L57.4501 122.76C57.0846 121.801 56.5207 120.93 55.7951 120.205C55.0696 119.479 54.1989 118.915 53.2401 118.55L9.40007 101.69C6.63385 100.625 4.25524 98.7465 2.57758 96.3027C0.899932 93.8589 0.00195313 90.9642 0.00195312 88C0.00195313 85.0357 0.899932 82.1411 2.57758 79.6973C4.25524 77.2535 6.63385 75.3752 9.40007 74.31L53.2401 57.45C54.1979 57.0829 55.0678 56.5183 55.7931 55.793C56.5184 55.0677 57.083 54.1978 57.4501 53.24L74.1601 9.78998C75.1024 7.232 76.7241 4.97919 78.8507 3.27367C80.9773 1.56815 83.5285 0.474403 86.2301 0.109981C89.4735 -0.284317 92.7558 0.415469 95.5564 2.09837C98.3571 3.78128 100.516 6.35097 101.69 9.39998L118.55 53.24C118.917 54.1978 119.482 55.0677 120.207 55.793C120.932 56.5183 121.802 57.0829 122.76 57.45L166.6 74.31C169.366 75.3752 171.745 77.2535 173.423 79.6973C175.1 82.1411 175.998 85.0357 175.998 88C175.998 90.9642 175.1 93.8589 173.423 96.3027C171.745 98.7465 169.366 100.625 166.6 101.69L122.76 118.55C121.801 118.915 120.931 119.479 120.205 120.205C119.479 120.93 118.915 121.801 118.55 122.76L101.69 166.6C100.625 169.367 98.747 171.746 96.3032 173.424C93.8594 175.102 90.9645 176 88.0001 176Z" fill="black"/>
<path d="M400.001 256C396.767 255.999 393.609 255.018 390.944 253.186C388.279 251.355 386.231 248.759 385.071 245.74L362.231 186.37C361.829 185.324 361.212 184.374 360.419 183.581C359.627 182.789 358.677 182.172 357.631 181.77L298.261 158.93C295.245 157.768 292.651 155.719 290.822 153.054C288.993 150.389 288.014 147.232 288.014 144C288.014 140.768 288.993 137.611 290.822 134.946C292.651 132.281 295.245 130.232 298.261 129.07L357.631 106.23C358.677 105.828 359.627 105.211 360.419 104.419C361.212 103.626 361.829 102.676 362.231 101.63L384.901 42.68C385.936 39.8923 387.707 37.4373 390.026 35.5761C392.345 33.7148 395.125 32.517 398.071 32.11C401.61 31.6815 405.191 32.4475 408.246 34.2864C411.3 36.1252 413.653 38.9315 414.931 42.26L437.771 101.63C438.173 102.676 438.79 103.626 439.582 104.419C440.375 105.211 441.325 105.828 442.371 106.23L501.741 129.07C504.757 130.232 507.351 132.281 509.18 134.946C511.009 137.611 511.988 140.768 511.988 144C511.988 147.232 511.009 150.389 509.18 153.054C507.351 155.719 504.757 157.768 501.741 158.93L442.371 181.77C441.325 182.172 440.375 182.789 439.582 183.581C438.79 184.374 438.173 185.324 437.771 186.37L414.931 245.74C413.771 248.759 411.723 251.355 409.058 253.186C406.392 255.018 403.235 255.999 400.001 256Z" fill="black"/>
</g>
<defs>
<clipPath id="clip0_1492_1412">
<rect width="512" height="512" fill="white"/>
</clipPath>
</defs>
</svg>